#N canvas 111 290 947 663 10;
#X msg 26 16 connect 127.0.0.1 1234;
#X obj 26 621 udpsend;
#X obj 40 599 packOSC;
#X msg 70 268 start;
#X msg 54 199 stop;
#X msg 74 336 tempo 110 10000;
#X msg 76 383 tempo 90 10000;
#X msg 77 432 tempo 70 10000;
#X msg 77 476 tempo 50 10000;
#X msg 78 519 tempo 40 10000;
#X msg 70 289 tempo 120 10000;
#X obj 40 566 list trim;
#X obj 40 546 list prepend /Spacey/PD/controls;
#X obj 232 13 udpreceive 1234;
#X obj 232 41 unpackOSC;
#X obj 232 68 routeOSC /Spacey/PD/Score;
#X obj 248 566 list trim;
#X obj 248 546 list prepend /Spacey/PD/ins1;
#X msg 314 457 sq2 50 0 0 0 50 0 0 0 50 0 0 0 50 0 0 58;
#X msg 314 476 sq1 50 0 0 0 50 0 0 0 50 0 0 0 50 0 0 60;
#X msg 314 439 sq3 50 0 0 0 50 0 0 0 50 0 0 0 50 0 0 60;
#X msg 314 421 sq4 50 0 0 0 50 0 0 0 50 0 0 0 50 0 0 62;
#X msg 247 357 freq \$1 10 \, res \$2 10 \, env \$3 10;
#X msg 247 379 time \$1 10 \, feed \$2 10;
#X msg 314 496 attack 90 10 \, decay 90 10 \, sustain 0 10 \, release
0 10;
#X msg 620 56 sq3 1 1 1 1 1 0 0 0 0 1 1 1 1 1 0 0;
#X msg 620 36 sq2 0 0 0 0 0 0 0 0 0 0 0 0 0 0 0 0;
#X msg 620 74 sq4 0 0 0 0 0 0 0 0 0 0 0 0 0 0 0 0;
#X msg 711 466 sq1 1 0 1 1 1 0 1 1 1 0 1 1 1 0 1 1;
#X obj 629 568 list trim;
#X obj 253 627 print;
#X msg 314 518 vol 1 1000;
#X obj 232 98 sel 0 1 2 3 4 5;
#X obj 232 216 s \$0init;
#X obj 246 197 s \$0sc1;
#X obj 261 178 s \$0sc2;
#X obj 275 160 s \$0sc3;
#X obj 290 141 s \$0sc4;
#X obj 314 400 r \$0init;
#X obj 70 246 r \$0init;
#X obj 76 363 r \$0sc2;
#X obj 77 410 r \$0sc3;
#X obj 74 315 r \$0sc1;
#X obj 77 456 r \$0sc4;
#X obj 304 122 s \$0sc5;
#X obj 78 499 r \$0sc5;
#X obj 711 446 r \$0init;
#X msg 711 508 vol 0 10;
#X obj 629 548 list prepend /Spacey/PD/ins2;
#X obj 711 379 r \$0sc1;
#X msg 711 401 vol 0.2 100000;
#X msg 514 1 0;
#X msg 514 27 1;
#X msg 515 49 2;
#X msg 515 75 3;
#X connect 0 0 1 0;
#X connect 2 0 1 0;
#X connect 3 0 12 0;
#X connect 4 0 12 0;
#X connect 5 0 12 0;
#X connect 6 0 12 0;
#X connect 7 0 12 0;
#X connect 8 0 12 0;
#X connect 9 0 12 0;
#X connect 10 0 12 0;
#X connect 11 0 2 0;
#X connect 12 0 11 0;
#X connect 13 0 14 0;
#X connect 14 0 15 0;
#X connect 15 0 32 0;
#X connect 16 0 2 0;
#X connect 16 0 30 0;
#X connect 17 0 16 0;
#X connect 18 0 17 0;
#X connect 19 0 17 0;
#X connect 20 0 17 0;
#X connect 21 0 17 0;
#X connect 22 0 17 0;
#X connect 23 0 17 0;
#X connect 24 0 17 0;
#X connect 25 0 48 0;
#X connect 26 0 48 0;
#X connect 27 0 48 0;
#X connect 28 0 48 0;
#X connect 29 0 2 0;
#X connect 31 0 17 0;
#X connect 32 0 33 0;
#X connect 32 1 34 0;
#X connect 32 2 35 0;
#X connect 32 3 36 0;
#X connect 32 4 37 0;
#X connect 32 5 44 0;
#X connect 38 0 21 0;
#X connect 38 0 20 0;
#X connect 38 0 19 0;
#X connect 38 0 18 0;
#X connect 38 0 24 0;
#X connect 38 0 31 0;
#X connect 39 0 3 0;
#X connect 39 0 10 0;
#X connect 40 0 6 0;
#X connect 41 0 7 0;
#X connect 42 0 5 0;
#X connect 43 0 8 0;
#X connect 45 0 9 0;
#X connect 46 0 28 0;
#X connect 46 0 47 0;
#X connect 47 0 48 0;
#X connect 48 0 29 0;
#X connect 49 0 50 0;
#X connect 50 0 48 0;
#X connect 51 0 32 0;
#X connect 52 0 32 0;
#X connect 53 0 32 0;
#X connect 54 0 32 0;
