#N canvas 222 183 1453 741 10;
#X obj 7 894 dac~ 1 2;
#X obj 6 692 SinOsc~;
#X obj 160 737 *~, f 9;
#X obj 281 254 * 127;
#X obj 160 715 FilterA~;
#X obj 160 692 SawOsc~;
#X obj 414 277 noise~;
#X obj 413 311 FilterA~;
#X obj 6 715 FilterA~;
#X obj 6 737 *~, f 9;
#X obj 413 334 *~, f 9;
#X obj 160 873 Pan2~;
#X obj 35 825 f;
#X obj 60 825 + 0.01;
#X obj 7 871 Pan2~;
#X floatatom 34 847 5 0 0 0 - - -;
#X obj 35 803 metro 10;
#X obj 58 692 diy-adsr~;
#X obj 413 378 Pan2~;
#X obj 465 254 * 127;
#X obj 478 230 r \$0reset;
#X obj 160 896 dac~ 1 2;
#X obj 413 401 dac~ 1 2;
#X obj 465 277 diy-adsr~;
#X obj 293 230 r \$0reset;
#X obj 576 341 FilterA~;
#X obj 576 368 *~, f 9;
#X obj 577 525 Pan2~;
#X obj 649 283 * 127;
#X obj 639 229 r \$0reset;
#X obj 576 549 dac~ 1 2;
#X obj 628 319 diy-adsr~;
#X msg 500 856 60 0 0 0 50 0 0 0 50 0 0 0 50 0 0 0;
#X obj 35 781 tgl 15 0 empty empty empty 17 7 0 10 -262144 -1 -1 0
1;
#X obj 605 479 f;
#X floatatom 604 501 5 0 0 0 - - -;
#X obj 605 457 metro 10;
#X obj 605 437 tgl 15 0 empty empty empty 17 7 0 10 -262144 -1 -1 0
1;
#X obj 630 479 + 0.02;
#X obj 14 294 s \$0step;
#X obj 69 294 s \$0beat;
#X obj 124 294 s \$0seq;
#X obj 53 266 Met, f 6;
#X obj 218 172 r \$0step;
#X obj 239 196 r \$0seq;
#X obj 103 266 s \$0reset;
#X msg 103 245 0;
#X obj 564 167 r \$0step;
#X obj 585 191 r \$0seq;
#X obj 576 416 Delay~ 25 0.4;
#X obj 6 761 Delay~ 100 0.4;
#X obj 212 692 diy-adsr~;
#X obj 402 167 r \$0step;
#X obj 423 194 r \$0seq;
#X obj 1168 742 pack f f f f f f f f f f f f f f f f;
#X obj 1147 500 vradio 15 1 0 12 empty empty empty 0 -8 0 12 -262144
-1 -1 0;
#X obj 1164 500 vradio 15 1 0 12 empty empty empty 0 -8 0 12 -262144
-1 -1 0;
#X obj 1181 500 vradio 15 1 0 12 empty empty empty 0 -8 0 12 -262144
-1 -1 0;
#X obj 1198 500 vradio 15 1 0 12 empty empty empty 0 -8 0 12 -262144
-1 -1 0;
#X obj 1215 500 vradio 15 1 0 12 empty empty empty 0 -8 0 12 -262144
-1 -1 0;
#X obj 1232 500 vradio 15 1 0 12 empty empty empty 0 -8 0 12 -262144
-1 -1 0;
#X obj 1249 500 vradio 15 1 0 12 empty empty empty 0 -8 0 12 -262144
-1 -1 0;
#X obj 1266 500 vradio 15 1 0 12 empty empty empty 0 -8 0 12 -262144
-1 -1 0;
#X obj 1283 500 vradio 15 1 0 12 empty empty empty 0 -8 0 12 -262144
-1 -1 0;
#X obj 1300 500 vradio 15 1 0 12 empty empty empty 0 -8 0 12 -262144
-1 -1 0;
#X obj 1317 500 vradio 15 1 0 12 empty empty empty 0 -8 0 12 -262144
-1 -1 0;
#X obj 1334 500 vradio 15 1 0 12 empty empty empty 0 -8 0 12 -262144
-1 -1 0;
#X obj 1351 500 vradio 15 1 0 12 empty empty empty 0 -8 0 12 -262144
-1 -1 0;
#X obj 1368 500 vradio 15 1 0 12 empty empty empty 0 -8 0 12 -262144
-1 -1 0;
#X obj 1385 500 vradio 15 1 0 12 empty empty empty 0 -8 0 12 -262144
-1 -1 0;
#X obj 1402 500 vradio 15 1 0 12 empty empty empty 0 -8 0 12 -262144
-1 -1 0;
#X obj 1147 703 +, f 2;
#X obj 1164 703 +, f 2;
#X obj 1181 703 +, f 2;
#X obj 1198 703 +, f 2;
#X obj 1215 703 +, f 2;
#X obj 1232 703 +, f 2;
#X obj 1249 703 +, f 2;
#X obj 1266 703 +, f 2;
#X obj 1283 703 +, f 2;
#X obj 1300 703 +, f 2;
#X obj 1317 703 +, f 2;
#X obj 1334 703 +, f 2;
#X obj 1351 703 +, f 2;
#X obj 1368 703 +, f 2;
#X obj 1385 703 +, f 2;
#X obj 1402 703 +, f 2;
#X obj 1115 677 bng 15 250 50 0 empty empty empty 17 7 0 10 -262144
-1 -1;
#X obj 1185 463 t b b b b b b b b b b b b b b b b;
#X obj 1183 440 bng 15 250 50 0 empty empty empty 17 7 0 10 -262144
-1 -1;
#X floatatom 1421 690 5 0 0 0 - - -;
#X obj 1421 671 *;
#X msg 1442 646 12;
#X obj 1421 547 vradio 15 1 0 8 empty empty empty 0 -8 0 10 -262144
-1 -1 0;
#X obj 564 249 SawOsc~;
#N canvas 1161 65 719 820 trivoice 0;
#X obj 79 723 dac~ 1 2;
#X obj 79 105 SinOsc~;
#X obj 93 125 SawOsc~;
#X obj 79 369 FilterA~;
#X obj 79 391 *~, f 9;
#X obj 107 603 f;
#X obj 132 603 + 0.01;
#X obj 79 700 Pan2~;
#X floatatom 106 625 5 0 0 0 - - -;
#X obj 107 581 metro 10;
#X obj 159 207 diy-adsr~;
#X obj 107 559 tgl 15 0 empty empty empty 17 7 0 10 -262144 -1 -1 0
1;
#X obj 78 539 Delay~ 100 0.4;
#X obj 79 14 inlet;
#X obj 159 181 inlet;
#X obj 108 146 SawOsc~;
#X obj 78 151 +~;
#X obj 78 175 +~;
#X obj 78 204 clipping~;
#X obj 240 238 vsl 15 128 10 10000 0 0 empty empty Freq 0 -9 0 10 -262144
-1 -1 0 0;
#X obj 269 238 vsl 15 128 1 100 0 1 empty empty Peak 0 -9 0 10 -262144
-1 -1 12700 0;
#X obj 299 238 vsl 15 128 0 1 0 0 empty empty Env-Int 0 -9 0 10 -262144
-1 -1 0 0;
#X obj 233 78 vsl 15 128 50 5000 1 1 empty empty A 0 -9 0 10 -262144
-1 -1 1600 0;
#X obj 262 78 vsl 15 128 50 5000 1 1 empty empty D 0 -9 0 10 -262144
-1 -1 1600 0;
#X obj 292 78 vsl 15 128 0 1 0 1 empty empty S 0 -9 0 10 -262144 -1
-1 1600 0;
#X obj 320 78 vsl 15 128 50 5000 1 0 empty empty R 0 -9 0 10 -262144
-1 -1 0 0;
#X obj 258 410 vsl 15 128 1 30 0 1 empty empty Time 0 -9 0 10 -262144
-1 -1 4200 0;
#X obj 289 410 vsl 15 128 0 1 0 1 empty empty Feedback 0 -9 0 10 -262144
-1 -1 2000 0;
#X floatatom 255 562 5 0 0 0 - - -;
#X floatatom 289 563 5 0 0 0 - - -;
#X obj 208 612 hsl 128 15 0 1 0 1 empty empty Pan -2 -8 0 10 -262144
-1 -1 6300 1;
#X obj 193 457 r metrate;
#X obj 191 525 *;
#X obj 230 538 int;
#X obj 193 479 f;
#X obj 193 504 / 4;
#X text 3 535 Tempo Delay;
#X obj 292 653 vsl 15 128 0 1 0 1 empty empty Volume 0 -9 0 10 -262144
-1 -1 6100 0;
#X msg 381 355 freq \$1 10 \, res \$2 10 \, env \$3 10;
#X obj 381 331 pack f f f;
#X msg 381 308 bang;
#X msg 391 516 bang;
#X obj 391 539 pack f f;
#X msg 373 170 bang;
#X obj 373 193 pack f f f f;
#X msg 373 217 attack \$1 10 \, decay \$2 10 \, sustain \$3 10 \, release
\$4 10;
#X msg 391 563 time \$1 10 \, feed \$2 10;
#X obj 78 650 Volume~ 0.5;
#X msg 293 797 vol \$1 10;
#X connect 1 0 16 0;
#X connect 2 0 16 1;
#X connect 3 0 4 0;
#X connect 4 0 12 0;
#X connect 5 0 6 0;
#X connect 5 0 8 0;
#X connect 6 0 5 1;
#X connect 7 0 0 0;
#X connect 7 1 0 1;
#X connect 8 0 7 1;
#X connect 9 0 5 0;
#X connect 10 0 4 1;
#X connect 10 0 3 1;
#X connect 11 0 9 0;
#X connect 12 0 47 0;
#X connect 13 0 1 0;
#X connect 13 0 2 0;
#X connect 13 0 15 0;
#X connect 13 0 10 1;
#X connect 13 0 3 2;
#X connect 13 0 12 1;
#X connect 13 0 47 1;
#X connect 14 0 10 0;
#X connect 15 0 17 1;
#X connect 16 0 17 0;
#X connect 17 0 18 0;
#X connect 18 0 3 0;
#X connect 19 0 39 0;
#X connect 19 0 40 0;
#X connect 20 0 39 1;
#X connect 20 0 40 0;
#X connect 21 0 39 2;
#X connect 21 0 40 0;
#X connect 22 0 43 0;
#X connect 22 0 44 0;
#X connect 23 0 43 0;
#X connect 23 0 44 1;
#X connect 24 0 43 0;
#X connect 24 0 44 2;
#X connect 25 0 43 0;
#X connect 25 0 44 3;
#X connect 26 0 33 0;
#X connect 26 0 41 0;
#X connect 27 0 29 0;
#X connect 27 0 41 0;
#X connect 27 0 42 1;
#X connect 28 0 42 0;
#X connect 30 0 8 0;
#X connect 31 0 34 0;
#X connect 32 0 28 0;
#X connect 33 0 32 0;
#X connect 34 0 35 0;
#X connect 35 0 32 1;
#X connect 37 0 48 0;
#X connect 38 0 3 2;
#X connect 39 0 38 0;
#X connect 40 0 39 0;
#X connect 41 0 42 0;
#X connect 42 0 46 0;
#X connect 43 0 44 0;
#X connect 44 0 45 0;
#X connect 45 0 10 1;
#X connect 46 0 12 1;
#X connect 47 0 7 0;
#X connect 48 0 47 1;
#X restore 240 289 pd trivoice;
#X obj 1106 785 list store;
#X msg 1087 705 list sq1;
#X msg 1099 725 list sq2;
#X obj 1109 817 list trim;
#X msg 1109 744 list sq3;
#X msg 1116 764 list sq4;
#X msg 500 836 sq1 56 54 53 51 56 54 53 51 56 54 53 51 56 54 53 51
;
#X msg 1024 139 sq1 1 1 1 1 1 1 1 1 1 1 1 1 1 1 1 1;
#X msg 500 878 sq2 \, sq3 \, sq4;
#X msg 691 879 sq4 0 0 0 0 0 0 0 38 50 38 52 38 43 45 38 42;
#X obj 218 230 4BarSeq 1 4;
#X msg 1024 178 sq3 1 1 1 1 1 0 0 0 0 1 1 1 1 1 0 0;
#X msg 1024 158 sq2 0 0 0 0 0 0 0 0 0 0 0 0 0 0 0 0;
#X msg 1024 196 sq4 0 0 0 0 0 0 0 0 0 0 0 0 0 0 0 0;
#X msg 101 221 stop;
#X msg 52 224 start;
#X msg 1040 221 sq1 1 0 1 1 1 0 1 1 1 0 1 1 1 0 1 1;
#X msg 900 829 freq 250 10000;
#X msg 901 799 feed 0.25 1000;
#X msg 897 774 time 250 1;
#X obj 564 229 4BarSeq 1 4;
#X obj 518 733 routeOSC;
#X obj 284 10 udpreceive 1234;
#X obj 284 38 unpackOSC;
#X obj 284 65 routeOSC /Spacey/PD;
#X obj 53 173 route start stop;
#X obj 576 393 Volume~ 0;
#X obj 413 355 Volume~ 0.2;
#X obj 402 230 4BarSeq 1 2;
#X obj 613 250 - 12;
#X obj 564 288 +~;
#X obj 578 269 SawOsc~;
#X obj 564 309 clipping~;
#X obj 721 169 controller;
#X obj 284 97 routeOSC /controls /ins1 /ins2 /ins3 /pickup;
#X obj 756 414 FilterA~;
#X obj 756 441 *~, f 9;
#X obj 757 598 Pan2~;
#X obj 829 356 * 127;
#X obj 756 622 dac~ 1 2;
#X obj 785 552 f;
#X floatatom 784 574 5 0 0 0 - - -;
#X obj 785 530 metro 10;
#X obj 785 510 tgl 15 0 empty empty empty 17 7 0 10 -262144 -1 -1 0
1;
#X obj 810 552 + 0.02;
#X obj 756 489 Delay~ 25 0.4;
#X obj 742 229 SawOsc~;
#X obj 744 305 +~;
#X obj 789 257 SawOsc~;
#X obj 744 382 clipping~;
#X obj 808 392 diy-adsr~ 10 10 0 0;
#X obj 785 281 volume 0.5;
#X obj 791 230 - 23;
#X msg 742 197 96;
#X obj 756 466 Volume~ 0.5;
#X connect 1 0 8 0;
#X connect 2 0 11 0;
#X connect 3 0 95 1;
#X connect 4 0 2 0;
#X connect 5 0 4 0;
#X connect 6 0 7 0;
#X connect 7 0 10 0;
#X connect 8 0 9 0;
#X connect 9 0 50 0;
#X connect 10 0 123 0;
#X connect 11 0 21 0;
#X connect 11 1 21 1;
#X connect 12 0 13 0;
#X connect 12 0 15 0;
#X connect 13 0 12 1;
#X connect 14 0 0 0;
#X connect 14 1 0 1;
#X connect 15 0 14 1;
#X connect 16 0 12 0;
#X connect 17 0 9 1;
#X connect 17 0 8 1;
#X connect 18 0 22 0;
#X connect 18 1 22 1;
#X connect 19 0 23 0;
#X connect 20 0 19 0;
#X connect 23 0 10 1;
#X connect 23 0 7 1;
#X connect 24 0 3 0;
#X connect 25 0 26 0;
#X connect 26 0 122 0;
#X connect 27 0 30 0;
#X connect 27 1 30 1;
#X connect 28 0 31 0;
#X connect 29 0 28 0;
#X connect 31 0 26 1;
#X connect 31 0 25 1;
#X connect 33 0 16 0;
#X connect 34 0 35 0;
#X connect 34 0 38 0;
#X connect 35 0 27 1;
#X connect 36 0 34 0;
#X connect 37 0 36 0;
#X connect 38 0 34 1;
#X connect 42 0 39 0;
#X connect 42 1 40 0;
#X connect 42 2 41 0;
#X connect 43 0 106 0;
#X connect 44 0 106 1;
#X connect 46 0 45 0;
#X connect 47 0 116 0;
#X connect 48 0 116 1;
#X connect 49 0 27 0;
#X connect 50 0 14 0;
#X connect 51 0 2 1;
#X connect 51 0 4 1;
#X connect 52 0 124 0;
#X connect 53 0 124 1;
#X connect 54 0 96 1;
#X connect 55 0 71 0;
#X connect 55 0 87 0;
#X connect 56 0 72 0;
#X connect 56 0 87 0;
#X connect 57 0 73 0;
#X connect 57 0 87 0;
#X connect 58 0 74 0;
#X connect 58 0 87 0;
#X connect 59 0 75 0;
#X connect 59 0 87 0;
#X connect 60 0 76 0;
#X connect 60 0 87 0;
#X connect 61 0 77 0;
#X connect 61 0 87 0;
#X connect 62 0 78 0;
#X connect 62 0 87 0;
#X connect 63 0 79 0;
#X connect 63 0 87 0;
#X connect 64 0 80 0;
#X connect 64 0 87 0;
#X connect 65 0 81 0;
#X connect 65 0 87 0;
#X connect 66 0 82 0;
#X connect 66 0 87 0;
#X connect 67 0 83 0;
#X connect 67 0 87 0;
#X connect 68 0 84 0;
#X connect 68 0 87 0;
#X connect 69 0 85 0;
#X connect 69 0 87 0;
#X connect 70 0 86 0;
#X connect 70 0 87 0;
#X connect 71 0 54 0;
#X connect 72 0 54 1;
#X connect 73 0 54 2;
#X connect 74 0 54 3;
#X connect 75 0 54 4;
#X connect 76 0 54 5;
#X connect 77 0 54 6;
#X connect 78 0 54 7;
#X connect 79 0 54 8;
#X connect 80 0 54 9;
#X connect 81 0 54 10;
#X connect 82 0 54 11;
#X connect 83 0 54 12;
#X connect 84 0 54 13;
#X connect 85 0 54 14;
#X connect 86 0 54 15;
#X connect 87 0 54 0;
#X connect 88 0 55 0;
#X connect 88 1 56 0;
#X connect 88 2 57 0;
#X connect 88 3 58 0;
#X connect 88 4 59 0;
#X connect 88 5 60 0;
#X connect 88 6 61 0;
#X connect 88 7 62 0;
#X connect 88 8 63 0;
#X connect 88 9 64 0;
#X connect 88 10 65 0;
#X connect 88 11 66 0;
#X connect 88 12 67 0;
#X connect 88 13 68 0;
#X connect 88 14 69 0;
#X connect 88 15 70 0;
#X connect 89 0 88 0;
#X connect 90 0 86 1;
#X connect 90 0 85 1;
#X connect 90 0 84 1;
#X connect 90 0 83 1;
#X connect 90 0 82 1;
#X connect 90 0 81 1;
#X connect 90 0 80 1;
#X connect 90 0 79 1;
#X connect 90 0 78 1;
#X connect 90 0 77 1;
#X connect 90 0 76 1;
#X connect 90 0 75 1;
#X connect 90 0 74 1;
#X connect 90 0 73 1;
#X connect 90 0 72 1;
#X connect 90 0 71 1;
#X connect 91 0 90 0;
#X connect 92 0 91 1;
#X connect 93 0 91 0;
#X connect 94 0 126 0;
#X connect 96 0 99 0;
#X connect 97 0 96 0;
#X connect 98 0 96 0;
#X connect 100 0 96 0;
#X connect 101 0 96 0;
#X connect 106 0 95 0;
#X connect 106 1 3 0;
#X connect 110 0 46 0;
#X connect 110 0 42 0;
#X connect 111 0 42 0;
#X connect 116 0 94 0;
#X connect 116 0 125 0;
#X connect 116 1 28 0;
#X connect 118 0 119 0;
#X connect 119 0 120 0;
#X connect 119 0 129 0;
#X connect 120 0 130 0;
#X connect 121 0 111 0;
#X connect 121 1 110 0;
#X connect 121 2 42 0;
#X connect 122 0 49 0;
#X connect 123 0 18 0;
#X connect 124 1 19 0;
#X connect 125 0 127 0;
#X connect 126 0 128 0;
#X connect 127 0 126 1;
#X connect 128 0 25 0;
#X connect 130 0 121 0;
#X connect 130 1 106 3;
#X connect 130 1 95 0;
#X connect 130 2 23 1;
#X connect 130 2 7 2;
#X connect 130 2 123 1;
#X connect 130 2 124 3;
#X connect 130 3 116 3;
#X connect 130 3 31 1;
#X connect 130 3 25 2;
#X connect 130 3 122 1;
#X connect 130 3 49 1;
#X connect 130 4 149 0;
#X connect 131 0 132 0;
#X connect 132 0 150 0;
#X connect 133 0 135 0;
#X connect 133 1 135 1;
#X connect 134 0 146 0;
#X connect 136 0 137 0;
#X connect 136 0 140 0;
#X connect 137 0 133 1;
#X connect 138 0 136 0;
#X connect 139 0 138 0;
#X connect 140 0 136 1;
#X connect 141 0 133 0;
#X connect 142 0 143 0;
#X connect 143 0 145 0;
#X connect 144 0 147 0;
#X connect 145 0 131 0;
#X connect 146 0 132 1;
#X connect 146 0 131 1;
#X connect 147 0 143 1;
#X connect 148 0 144 0;
#X connect 149 0 142 0;
#X connect 149 0 134 0;
#X connect 149 0 148 0;
#X connect 150 0 141 0;
